<?xml version="1.0" encoding="utf-8"?><svg xmlns="http://www.w3.org/2000/svg" xmlns:xlink="http://www.w3.org/1999/xlink" width="2969" height="1461" preserveAspectRatio="xMidYMid" viewBox="0 0 2969 1461" style="z-index:1;margin-right:-1.6px;display:block;background-repeat-y:initial;background-repeat-x:initial;animation-play-state:paused" ><g transform="translate(1484.5,730.5) scale(1,1) translate(-1484.5,-730.5)" style="transform:matrix(1, 0, 0, 1, 0, 0);animation-play-state:paused" ><path id="path0" d="M 2906.5808748266372 1135.657162311042
c 0 33.10650919425621 -8.100528845403115 9.509316470690615 -17.609845316093732 9.509316470690615
S 2871.3611841944494 1168.7636715052981 2871.3611841944494 1135.657162311042
s 8.100528845403115 -9.509316470690615 17.609845316093732 -9.509316470690615
S 2906.5808748266372 1102.5506531167857 2906.5808748266372 1135.657162311042
z" fill="none" stroke="none" style="animation-play-state:paused" ></path>


<circle cx="0" cy="0" r="24.23420857693113" fill="#9df871" opacity="0.9" transform="translate(2871.524169921875 1142.75537109375)" style="opacity:0.9;animation-play-state:paused" ></circle>
<path id="path1" d="M 1449.2217440475367 227.0371465644414
c 0 32.655012068389105 -7.990056144393078 9.379631126026657 -17.369687270419735 9.379631126026657
S 1414.4823695066973 259.6921586328305 1414.4823695066973 227.0371465644414
s 7.990056144393078 -9.379631126026657 17.369687270419735 -9.379631126026657
S 1449.2217440475367 194.3821344960523 1449.2217440475367 227.0371465644414
z" fill="none" stroke="none" style="animation-play-state:paused" ></path>


<circle cx="0" cy="0" r="14.644182792148172" fill="#9df871" opacity="0.9" transform="translate(1442.7786865234375 243.12353515625)" style="opacity:0.9;animation-play-state:paused" ></circle>
<path id="path2" d="M 1734.9341437150715 1276.4933482239549
c 0 18.99778149018774 -4.648393343343809 5.456809576968819 -10.105202920312628 5.456809576968819
S 1714.7237378744462 1295.4911297141425 1714.7237378744462 1276.4933482239549
s 4.648393343343809 -5.456809576968819 10.105202920312628 -5.456809576968819
S 1734.9341437150715 1257.4955667337672 1734.9341437150715 1276.4933482239549
z" fill="none" stroke="none" style="animation-play-state:paused" ></path>


<circle cx="0" cy="0" r="22.709562230432244" fill="#51cacc" opacity="0.9" transform="translate(1722.743896484375 1270.4476318359375)" style="opacity:0.9;animation-play-state:paused" ></circle>
<path id="path3" d="M 1534.9422870317233 853.1602286348718
c 0 37.18280191778621 -9.09791961818173 10.680166508300294 -19.778086126482023 10.680166508300294
S 1495.386114778759 890.3430305526581 1495.386114778759 853.1602286348718
s 9.09791961818173 -10.680166508300294 19.778086126482023 -10.680166508300294
S 1534.9422870317233 815.9774267170856 1534.9422870317233 853.1602286348718
z" fill="none" stroke="none" style="animation-play-state:paused" ></path>


<circle cx="0" cy="0" r="20.82326938666233" fill="#e0ff77" opacity="0.9" transform="translate(1504.5194091796875 836.319580078125)" style="opacity:0.9;animation-play-state:paused" ></circle>
<path id="path4" d="M 2588.5897663195124 319.64176946579596
c 0 32.52100638171852 -7.957267518931126 9.34114013091915 -17.298407649850276 9.34114013091915
S 2553.992951019812 352.16277584751447 2553.992951019812 319.64176946579596
s 7.957267518931126 -9.34114013091915 17.298407649850276 -9.34114013091915
S 2588.5897663195124 287.12076308407745 2588.5897663195124 319.64176946579596
z" fill="none" stroke="none" style="animation-play-state:paused" ></path>


<circle cx="0" cy="0" r="14.189423154218614" fill="#e0ff77" opacity="0.9" transform="translate(2572.15576171875 310.23614501953125)" style="opacity:0.9;animation-play-state:paused" ></circle>
<path id="path5" d="M 298.7480848866516 1158.530629634413
c 0 23.93779673989933 -5.857120478911537 6.875750127417892 -12.73287060632943 6.875750127417892
S 273.2823436739928 1182.4684263743122 273.2823436739928 1158.530629634413
s 5.857120478911537 -6.875750127417892 12.73287060632943 -6.875750127417892
S 298.7480848866516 1134.5928328945135 298.7480848866516 1158.530629634413
z" fill="none" stroke="none" style="animation-play-state:paused" ></path>


<circle cx="0" cy="0" r="18.498897082140484" fill="#9df871" opacity="0.9" transform="translate(298.6019287109375 1164.1575927734375)" style="opacity:0.9;animation-play-state:paused" ></circle>
<path id="path6" d="M 302.79167287739256 1295.7208953816066
c 0 31.977548741699145 -7.824293841054045 9.185040596019968 -17.009334437074013 9.185040596019968
S 268.7730040032445 1327.6984441233058 268.7730040032445 1295.7208953816066
s 7.824293841054045 -9.185040596019968 17.009334437074013 -9.185040596019968
S 302.79167287739256 1263.7433466399075 302.79167287739256 1295.7208953816066
z" fill="none" stroke="none" style="animation-play-state:paused" ></path>


<circle cx="0" cy="0" r="23.70465685677071" fill="#51cacc" opacity="0.9" transform="translate(268.77691650390625 1296.876953125)" style="opacity:0.9;animation-play-state:paused" ></circle>
<path id="path7" d="M 108.40234413106361 946.2276942106351
c 0 34.36587885417715 -8.408672485596535 9.871050309178543 -18.279722794775076 9.871050309178543
S 71.84289854151348 980.5935730648123 71.84289854151348 946.2276942106351
s 8.408672485596535 -9.871050309178543 18.279722794775076 -9.871050309178543
S 108.40234413106361 911.861815356458 108.40234413106361 946.2276942106351
z" fill="none" stroke="none" style="animation-play-state:paused" ></path>


<circle cx="0" cy="0" r="19.101201791911805" fill="#ff708e" opacity="0.9" transform="translate(107.75975036621094 933.737548828125)" style="opacity:0.9;animation-play-state:paused" ></circle>
<path id="path8" d="M 137.22831517012133 1275.015272137506
c 0 35.8969271061476 -8.783290674908454 10.310819487936012 -19.094110162844466 10.310819487936012
S 99.04009484443242 1310.9121992436535 99.04009484443242 1275.015272137506
s 8.783290674908454 -10.310819487936012 19.094110162844466 -10.310819487936012
S 137.22831517012133 1239.1183450313583 137.22831517012133 1275.015272137506
z" fill="none" stroke="none" style="animation-play-state:paused" ></path>


<circle cx="0" cy="0" r="16.134082173627355" fill="#de9dd6" opacity="0.9" transform="translate(132.39984130859375 1256.018310546875)" style="opacity:0.9;animation-play-state:paused" ></circle>
<path id="path9" d="M 1452.2450838018578 1337.7706476931126
c 0 19.957213785088683 -4.883148053798294 5.7323911935893035 -10.615539247387598 5.7323911935893035
S 1431.0140053070825 1357.7278614782012 1431.0140053070825 1337.7706476931126
s 4.883148053798294 -5.7323911935893035 10.615539247387598 -5.7323911935893035
S 1452.2450838018578 1317.8134339080239 1452.2450838018578 1337.7706476931126
z" fill="none" stroke="none" style="animation-play-state:paused" ></path>


<circle cx="0" cy="0" r="14.889959120280388" fill="#e0ff77" opacity="0.9" transform="translate(1442.4224853515625 1331.950927734375)" style="opacity:0.9;animation-play-state:paused" ></circle>
<path id="path10" d="M 2596.251809465698 1372.2205950046048
c 0 20.32837223454427 -4.973963419090619 5.839000535454205 -10.812963954544824 5.839000535454205
S 2574.625881556608 1392.548967239149 2574.625881556608 1372.2205950046048
s 4.973963419090619 -5.839000535454205 10.812963954544824 -5.839000535454205
S 2596.251809465698 1351.8922227700605 2596.251809465698 1372.2205950046048
z" fill="none" stroke="none" style="animation-play-state:paused" ></path>


<circle cx="0" cy="0" r="21.938150736763163" fill="#51cacc" opacity="0.9" transform="translate(2574.841064453125 1366.2427978515625)" style="opacity:0.9;animation-play-state:paused" ></circle>
<path id="path11" d="M 2445.4197698822795 1106.3470602970285
c 0 26.411169105775695 -6.462307334391925 7.5861868708079125 -14.048494205199837 7.5861868708079125
S 2417.32278147188 1132.7582294028043 2417.32278147188 1106.3470602970285
s 6.462307334391925 -7.5861868708079125 14.048494205199837 -7.5861868708079125
S 2445.4197698822795 1079.9358911912527 2445.4197698822795 1106.3470602970285
z" fill="none" stroke="none" style="animation-play-state:paused" ></path>


<circle cx="0" cy="0" r="22.275566765500745" fill="#ff708e" opacity="0.9" transform="translate(2419.15087890625 1092.7703857421875)" style="opacity:0.9;animation-play-state:paused" ></circle>
<path id="path12" d="M 1272.0219751810098 1058.2602622959546
c 0 20.430881973443828 -4.999045589246894 5.868444822159398 -10.86749041140629 5.868444822159398
S 1250.286994358197 1078.6911442693984 1250.286994358197 1058.2602622959546
s 4.999045589246894 -5.868444822159398 10.86749041140629 -5.868444822159398
S 1272.0219751810098 1037.8293803225108 1272.0219751810098 1058.2602622959546
z" fill="none" stroke="none" style="animation-play-state:paused" ></path>


<circle cx="0" cy="0" r="21.738849883833183" fill="#51cacc" opacity="0.9" transform="translate(1258.3011474609375 1051.4005126953125)" style="opacity:0.9;animation-play-state:paused" ></circle>
<path id="path13" d="M 841.3976382337854 299.02869840298735
c 0 21.49798954325157 -5.260146377604107 6.1749544432743875 -11.435100820878494 6.1749544432743875
S 818.5274365920285 320.5266879462389 818.5274365920285 299.02869840298735
s 5.260146377604107 -6.1749544432743875 11.435100820878494 -6.1749544432743875
S 841.3976382337854 277.5307088597358 841.3976382337854 299.02869840298735
z" fill="none" stroke="none" style="animation-play-state:paused" ></path>


<circle cx="0" cy="0" r="24.06651215126262" fill="#9df871" opacity="0.9" transform="translate(819.0258178710938 290.627197265625)" style="opacity:0.9;animation-play-state:paused" ></circle>
<path id="path14" d="M 617.5346810466275 642.4915633449156
c 0 30.87131704223207 -7.553620127354655 8.867293192981553 -16.420913320336208 8.867293192981553
S 584.692854405955 673.3628803871476 584.692854405955 642.4915633449156
s 7.553620127354655 -8.867293192981553 16.420913320336208 -8.867293192981553
S 617.5346810466275 611.6202463026835 617.5346810466275 642.4915633449156
z" fill="none" stroke="none" style="animation-play-state:paused" ></path>


<circle cx="0" cy="0" r="18.969921403380436" fill="#9df871" opacity="0.9" transform="translate(617.1538696289062 632.857421875)" style="opacity:0.9;animation-play-state:paused" ></circle>
<path id="path15" d="M 2898.8913889513624 309.3271783375443
c 0 37.34192815039202 -9.136854760202302 10.725872979367923 -19.862727739570225 10.725872979367923
S 2859.1659334722217 346.66910648793635 2859.1659334722217 309.3271783375443
s 9.136854760202302 -10.725872979367923 19.862727739570225 -10.725872979367923
S 2898.8913889513624 271.98525018715225 2898.8913889513624 309.3271783375443
z" fill="none" stroke="none" style="animation-play-state:paused" ></path>


<circle cx="0" cy="0" r="21.562117575599114" fill="#51cacc" opacity="0.9" transform="translate(2859.172607421875 311.000244140625)" style="opacity:0.9;animation-play-state:paused" ></circle>
<path id="path16" d="M 463.8620667428681 498.97791565120394
c 0 28.58005907889827 -6.992993178879362 8.209165905640992 -15.202159084520355 8.209165905640992
S 433.45774857382736 527.5579747301022 433.45774857382736 498.97791565120394
s 6.992993178879362 -8.209165905640992 15.202159084520355 -8.209165905640992
S 463.8620667428681 470.39785657230567 463.8620667428681 498.97791565120394
z" fill="none" stroke="none" style="animation-play-state:paused" ></path>


<circle cx="0" cy="0" r="18.592367595518507" fill="#9df871" opacity="0.9" transform="translate(433.5077819824219 495.12017822265625)" style="opacity:0.9;animation-play-state:paused" ></circle>
<path id="path17" d="M 2446.199586679049 945.1056864537321
c 0 35.74244895959849 -8.745492830540055 10.266448105416588 -19.01194093595664 10.266448105416588
S 2408.1757048071354 980.8481354133306 2408.1757048071354 945.1056864537321
s 8.745492830540055 -10.266448105416588 19.01194093595664 -10.266448105416588
S 2446.199586679049 909.3632374941336 2446.199586679049 945.1056864537321
z" fill="none" stroke="none" style="animation-play-state:paused" ></path>


<circle cx="0" cy="0" r="23.55125582879772" fill="#9df871" opacity="0.9" transform="translate(2409.006591796875 959.0879516601562)" style="opacity:0.9;animation-play-state:paused" ></circle>
<path id="path18" d="M 1695.6927265068514 1315.2373270264163
c 0 35.605291191921644 -8.71193295121487 10.227051725339196 -18.938984676554064 10.227051725339196
S 1657.8147571537431 1350.842618218338 1657.8147571537431 1315.2373270264163
s 8.71193295121487 -10.227051725339196 18.938984676554064 -10.227051725339196
S 1695.6927265068514 1279.6320358344947 1695.6927265068514 1315.2373270264163
z" fill="none" stroke="none" style="animation-play-state:paused" ></path>


<circle cx="0" cy="0" r="19.394427803726224" fill="#ff708e" opacity="0.9" transform="translate(1694.020263671875 1298.2392578125)" style="opacity:0.9;animation-play-state:paused" ></circle>
<path id="path19" d="M 284.4665619945463 97.90569624871961
c 0 31.3428312593518 -7.668990627288205 9.002728127686156 -16.67171875497436 9.002728127686156
S 251.12312448459758 129.24852750807142 251.12312448459758 97.90569624871961
s 7.668990627288205 -9.002728127686156 16.67171875497436 -9.002728127686156
S 284.4665619945463 66.56286498936781 284.4665619945463 97.90569624871961
z" fill="none" stroke="none" style="animation-play-state:paused" ></path>


<circle cx="0" cy="0" r="23.199358480429424" fill="#de9dd6" opacity="0.9" transform="translate(273.1606750488281 109.10791778564453)" style="opacity:0.9;animation-play-state:paused" ></circle>
<path id="path20" d="M 524.5894862660288 555.5347141114403
c 0 22.06493553658625 -5.398867205760465 6.337800632849242 -11.736667838609707 6.337800632849242
S 501.1161505888093 577.5996496480266 501.1161505888093 555.5347141114403
s 5.398867205760465 -6.337800632849242 11.736667838609707 -6.337800632849242
S 524.5894862660288 533.469778574854 524.5894862660288 555.5347141114403
z" fill="none" stroke="none" style="animation-play-state:paused" ></path>


<circle cx="0" cy="0" r="13.918928037877375" fill="#9df871" opacity="0.9" transform="translate(523.1912841796875 544.34912109375)" style="opacity:0.9;animation-play-state:paused" ></circle>
<path id="path21" d="M 1080.9179072167667 190.1521474395296
c 0 29.59808098393621 -7.2420836450056685 8.501576452832742 -15.74366009783841 8.501576452832742
S 1049.43058702109 219.7502284234658 1049.43058702109 190.1521474395296
s 7.2420836450056685 -8.501576452832742 15.74366009783841 -8.501576452832742
S 1080.9179072167667 160.55406645559341 1080.9179072167667 190.1521474395296
z" fill="none" stroke="none" style="animation-play-state:paused" ></path>


<circle cx="0" cy="0" r="21.552078116222155" fill="#9df871" opacity="0.9" transform="translate(1064.2149658203125 181.5636749267578)" style="opacity:0.9;animation-play-state:paused" ></circle>
<path id="path22" d="M 2116.0612939461626 1069.0301084203527
c 0 35.06638085474233 -8.580071911266737 10.072258330617476 -18.652330241884215 10.072258330617476
S 2078.7566334623943 1104.096489275095 2078.7566334623943 1069.0301084203527
s 8.580071911266737 -10.072258330617476 18.652330241884215 -10.072258330617476
S 2116.0612939461626 1033.9637275656103 2116.0612939461626 1069.0301084203527
z" fill="none" stroke="none" style="animation-play-state:paused" ></path>


<circle cx="0" cy="0" r="17.033276981279464" fill="#51cacc" opacity="0.9" transform="translate(2080.0576171875 1084.811767578125)" style="opacity:0.9;animation-play-state:paused" ></circle>
<path id="path23" d="M 832.2497607417332 1034.2617918199946
c 0 20.569206840809173 -5.032891035517138 5.9081764329983795 -10.941067468515516 5.9081764329983795
S 810.3676258047022 1054.8309986608037 810.3676258047022 1034.2617918199946
s 5.032891035517138 -5.9081764329983795 10.941067468515516 -5.9081764329983795
S 832.2497607417332 1013.6925849791854 832.2497607417332 1034.2617918199946
z" fill="none" stroke="none" style="animation-play-state:paused" ></path>


<circle cx="0" cy="0" r="22.241535831163706" fill="#ff708e" opacity="0.9" transform="translate(817.8663940429688 1041.555908203125)" style="opacity:0.9;animation-play-state:paused" ></circle>
<path id="path24" d="M 1734.158461904964 196.2985148615976
c 0 27.822976978240654 -6.807749686165265 7.991706153324443 -14.799455839489708 7.991706153324443
S 1704.5595502259848 224.12149183983826 1704.5595502259848 196.2985148615976
s 6.807749686165265 -7.991706153324443 14.799455839489708 -7.991706153324443
S 1734.158461904964 168.47553788335694 1734.158461904964 196.2985148615976
z" fill="none" stroke="none" style="animation-play-state:paused" ></path>


<circle cx="0" cy="0" r="24.053772133646618" fill="#e0ff77" opacity="0.9" transform="translate(1708.9105224609375 181.84112548828125)" style="opacity:0.9;animation-play-state:paused" ></circle>
<path id="path25" d="M 2744.864828632891 564.5137690281063
c 0 28.010167792099285 -6.853551693811526 8.04547372751788 -14.899025421329405 8.04547372751788
S 2715.066777790232 592.5239368202056 2715.066777790232 564.5137690281063
s 6.853551693811526 -8.04547372751788 14.899025421329405 -8.04547372751788
S 2744.864828632891 536.503601236007 2744.864828632891 564.5137690281063
z" fill="none" stroke="none" style="animation-play-state:paused" ></path>


<circle cx="0" cy="0" r="19.77963958338515" fill="#e0ff77" opacity="0.9" transform="translate(2715.100341796875 567.6278076171875)" style="opacity:0.9;animation-play-state:paused" ></circle>
<path id="path26" d="M 1162.8709058734498 1147.338426906088
c 0 33.923934527381896 -8.300537171593442 9.744108853609694 -18.044646025203136 9.744108853609694
S 1126.7816138230437 1181.2623614334698 1126.7816138230437 1147.338426906088
s 8.300537171593442 -9.744108853609694 18.044646025203136 -9.744108853609694
S 1162.8709058734498 1113.4144923787062 1162.8709058734498 1147.338426906088
z" fill="none" stroke="none" style="animation-play-state:paused" ></path>


<circle cx="0" cy="0" r="18.99273488655849" fill="#ff708e" opacity="0.9" transform="translate(1162.86962890625 1147.966796875)" style="opacity:0.9;animation-play-state:paused" ></circle>
<path id="path27" d="M 329.6001863040491 1375.4169624399062
c 0 22.32898527172505 -5.463475119677406 6.4136447057082595 -11.877119825385664 6.4136447057082595
S 305.8459466532778 1397.7459477116313 305.8459466532778 1375.4169624399062
s 5.463475119677406 -6.4136447057082595 11.877119825385664 -6.4136447057082595
S 329.6001863040491 1353.0879771681812 329.6001863040491 1375.4169624399062
z" fill="none" stroke="none" style="animation-play-state:paused" ></path>


<circle cx="0" cy="0" r="16.557933956532604" fill="#ff708e" opacity="0.9" transform="translate(329.4369812011719 1369.75732421875)" style="opacity:0.9;animation-play-state:paused" ></circle>
<path id="path28" d="M 2752.849053397073 100.98248300623538
c 0 32.73099872440063 -8.008648624055471 9.401457080412946 -17.410105704468418 9.401457080412946
S 2718.028841988136 133.713481730636 2718.028841988136 100.98248300623538
s 8.008648624055471 -9.401457080412946 17.410105704468418 -9.401457080412946
S 2752.849053397073 68.25148428183476 2752.849053397073 100.98248300623538
z" fill="none" stroke="none" style="animation-play-state:paused" ></path>


<circle cx="0" cy="0" r="23.573179817274443" fill="#51cacc" opacity="0.9" transform="translate(2725.886962890625 86.00152587890625)" style="opacity:0.9;animation-play-state:paused" ></circle>
<path id="path29" d="M 2007.0010740307362 650.872935205037
c 0 27.766522462899626 -6.793936347305227 7.975490494662659 -14.769426841967885 7.975490494662659
S 1977.4622203468002 678.6394576679367 1977.4622203468002 650.872935205037
s 6.793936347305227 -7.975490494662659 14.769426841967885 -7.975490494662659
S 2007.0010740307362 623.1064127421374 2007.0010740307362 650.872935205037
z" fill="none" stroke="none" style="animation-play-state:paused" ></path>


<circle cx="0" cy="0" r="24.727058982305618" fill="#ff708e" opacity="0.9" transform="translate(1984.399658203125 638.3980712890625)" style="opacity:0.9;animation-play-state:paused" ></circle>
<path id="path30" d="M 1699.6748388367505 597.459046801482
c 0 18.996945355980397 -4.648188757314352 5.456569410760327 -10.104758168074678 5.456569410760327
S 1679.4653225006014 616.4559921574624 1679.4653225006014 597.459046801482
s 4.648188757314352 -5.456569410760327 10.104758168074678 -5.456569410760327
S 1699.6748388367505 578.4621014455016 1699.6748388367505 597.459046801482
z" fill="none" stroke="none" style="animation-play-state:paused" ></path>


<circle cx="0" cy="0" r="18.010586381645975" fill="#51cacc" opacity="0.9" transform="translate(1682.3629150390625 587.550048828125)" style="opacity:0.9;animation-play-state:paused" ></circle>
<path id="path31" d="M 2527.092031501015 1167.5846640340565
c 0 36.62388001919644 -8.961162132356575 10.51962511189685 -19.480787244253428 10.51962511189685
S 2488.130457012508 1204.2085440532528 2488.130457012508 1167.5846640340565
s 8.961162132356575 -10.51962511189685 19.480787244253428 -10.51962511189685
S 2527.092031501015 1130.96078401486 2527.092031501015 1167.5846640340565
z" fill="none" stroke="none" style="animation-play-state:paused" ></path>


<circle cx="0" cy="0" r="24.882858782284035" fill="#51cacc" opacity="0.9" transform="translate(2525.538818359375 1184.6480712890625)" style="opacity:0.9;animation-play-state:paused" ></circle>
<path id="path32" d="M 95.33628145092304 349.3204622683492
c 0 25.832130959796668 -6.320627788035354 7.419867403345852 -13.740495191381205 7.419867403345852
S 67.85529106816064 375.15259322814586 67.85529106816064 349.3204622683492
s 6.320627788035354 -7.419867403345852 13.740495191381205 -7.419867403345852
S 95.33628145092304 323.4883313085526 95.33628145092304 349.3204622683492
z" fill="none" stroke="none" style="animation-play-state:paused" ></path>


<circle cx="0" cy="0" r="14.751298677318966" fill="#ff708e" opacity="0.9" transform="translate(68.3667221069336 358.8970031738281)" style="opacity:0.9;animation-play-state:paused" ></circle>
<path id="path33" d="M 726.7661916917126 1418.6139382730505
c 0 31.94502085792793 -7.816334890769599 9.17569748046866 -16.99203237123826 9.17569748046866
S 692.7821269492362 1450.5589591309783 692.7821269492362 1418.6139382730505
s 7.816334890769599 -9.17569748046866 16.99203237123826 -9.17569748046866
S 726.7661916917126 1386.6689174151227 726.7661916917126 1418.6139382730505
z" fill="none" stroke="none" style="animation-play-state:paused" ></path>


<circle cx="0" cy="0" r="21.458594636933704" fill="#ff708e" opacity="0.9" transform="translate(703.1685791015625 1406.314453125)" style="opacity:0.9;animation-play-state:paused" ></circle>
<path id="path34" d="M 325.55544588777417 1157.0909768750653
c 0 32.62345837723202 -7.982335560386558 9.370567831758134 -17.352903392144693 9.370567831758134
S 290.8496391034848 1189.7144352522973 290.8496391034848 1157.0909768750653
s 7.982335560386558 -9.370567831758134 17.352903392144693 -9.370567831758134
S 325.55544588777417 1124.4675184978332 325.55544588777417 1157.0909768750653
z" fill="none" stroke="none" style="animation-play-state:paused" ></path>


<circle cx="0" cy="0" r="22.717496363288692" fill="#9df871" opacity="0.9" transform="translate(291.96405029296875 1142.736328125)" style="opacity:0.9;animation-play-state:paused" ></circle>
<path id="path35" d="M 430.54703744786065 360.5189995596913
c 0 31.502686167760626 -7.7081040623244075 9.048643899250393 -16.7567479615748 9.048643899250393
S 397.0335415247111 392.0216857274519 397.0335415247111 360.5189995596913
s 7.7081040623244075 -9.048643899250393 16.7567479615748 -9.048643899250393
S 430.54703744786065 329.0163133919307 430.54703744786065 360.5189995596913
z" fill="none" stroke="none" style="animation-play-state:paused" ></path>


<circle cx="0" cy="0" r="16.214538724188138" fill="#ff708e" opacity="0.9" transform="translate(403.2413024902344 376.0439147949219)" style="opacity:0.9;animation-play-state:paused" ></circle>
<path id="path36" d="M 2045.7532956387356 451.07742358986644
c 0 18.80332720366337 -4.600814103024015 5.4009556861586265 -10.001769789182642 5.4009556861586265
S 2025.7497560603704 469.8807507935298 2025.7497560603704 451.07742358986644
s 4.600814103024015 -5.4009556861586265 10.001769789182642 -5.4009556861586265
S 2045.7532956387356 432.2740963862031 2045.7532956387356 451.07742358986644
z" fill="none" stroke="none" style="animation-play-state:paused" ></path>


<circle cx="0" cy="0" r="15.074369889485714" fill="#de9dd6" opacity="0.9" transform="translate(2031.039794921875 459.0118408203125)" style="opacity:0.9;animation-play-state:paused" ></circle>
<path id="path37" d="M 692.2592085341337 188.463215957937
c 0 22.33633214540004 -5.465272758980859 6.4157549779340535 -11.881027736914913 6.4157549779340535
S 668.4971530603038 210.79954810333703 668.4971530603038 188.463215957937
s 5.465272758980859 -6.4157549779340535 11.881027736914913 -6.4157549779340535
S 692.2592085341337 166.12688381253696 692.2592085341337 188.463215957937
z" fill="none" stroke="none" style="animation-play-state:paused" ></path>


<circle cx="0" cy="0" r="12.984291859148023" fill="#e0ff77" opacity="0.9" transform="translate(684.873046875 196.9628448486328)" style="opacity:0.9;animation-play-state:paused" ></circle></g></svg>