<svg xmlns="http://www.w3.org/2000/svg" version="1.1" xmlns:xlink="http://www.w3.org/1999/xlink" xmlns:svgjs="http://svgjs.dev/svgjs" width="1000" height="1000" viewBox="0 0 1000 1000"><rect width="1000" height="1000" fill="#000000"></rect><g transform="matrix(0.7,0,0,0.7,149.57575826879247,425.580106239402)"><svg viewBox="0 0 396 84" data-background-color="#000000" preserveAspectRatio="xMidYMid meet" height="212" width="1000" xmlns="http://www.w3.org/2000/svg" xmlns:xlink="http://www.w3.org/1999/xlink"><g id="tight-bounds" transform="matrix(1,0,0,1,0.23999982784789609,0.12446816637623215)"><svg viewBox="0 0 395.52 83.75105267277037" height="83.75105267277037" width="395.52"><g><svg viewBox="0 0 553.0359900679387 117.10494117647059" height="83.75105267277037" width="395.52"><g><rect width="6.480925290134589" height="78.46031058823529" x="134.06929176698054" y="19.32231529411765" fill="#ffffff" opacity="1" stroke-width="0" stroke="transparent" fill-opacity="1" class="rect-o-0" data-fill-palette-color="primary" rx="1%" id="o-0" data-palette-color="#ffffff"></rect></g><g transform="matrix(1,0,0,1,157.51599006793867,19.517490196078434)"><svg viewBox="0 0 395.52000000000004 78.06996078431372" height="78.06996078431372" width="395.52000000000004"><g><svg viewBox="0 0 395.52000000000004 78.06996078431372" height="78.06996078431372" width="395.52000000000004"><g><svg viewBox="0 0 395.52000000000004 78.06996078431372" height="78.06996078431372" width="395.52000000000004"><g transform="matrix(1,0,0,1,0,0)"><svg width="395.52000000000004" viewBox="3.6499996185302734 -34.349998474121094 191.25 34.75" height="78.06996078431372" data-palette-color="#ffffff"><svg></svg><g class="undefined-text-0" data-fill-palette-color="primary" id="text-0"><path xmlns="http://www.w3.org/2000/svg" d="M8.8-14.7v10.4h14.3v4.3h-19.45v-33.7h19.2v4.3h-14.05v10.4h12.45v4.3zM28.65-33.7h22.85v3.95l-17.05 25.5h17.75v4.25h-23.8v-4.05l17-25.4h-16.75zM73.05-21.25l3.45-11.95h4.55l3.55 12 4.55 15.85c1.233-6.067 2.383-11.35 3.45-15.85v0l2.95-12.5h5.2l-8.25 33.7h-6.15l-3.2-10.65-4.35-15.05c-0.767 3.167-2.167 8.183-4.2 15.05v0l-3.1 10.65h-6.2l-8.85-33.7h5.35l3.15 12.45 3.7 15.8c1.5-5.6 2.967-10.867 4.4-15.8zM104.55-17v0c0-5.233 1.4-9.433 4.2-12.6 2.8-3.167 6.55-4.75 11.25-4.75v0c4.8 0 8.583 1.573 11.35 4.72 2.767 3.153 4.15 7.363 4.15 12.63 0 5.267-1.393 9.483-4.18 12.65-2.78 3.167-6.537 4.75-11.27 4.75v0c-4.7 0-8.457-1.583-11.27-4.75-2.82-3.167-4.23-7.383-4.23-12.65zM112.63-26.18c-1.787 2.253-2.68 5.313-2.68 9.18 0 3.867 0.917 6.933 2.75 9.2 1.833 2.267 4.283 3.4 7.35 3.4v0c3.167 0 5.633-1.117 7.4-3.35 1.767-2.233 2.65-5.317 2.65-9.25v0c0-3.9-0.893-6.967-2.68-9.2-1.78-2.233-4.253-3.35-7.42-3.35v0c-3.133 0-5.59 1.123-7.37 3.37zM151-29.4h-4.4v12.3h4.65c2.133 0 3.75-0.56 4.85-1.68 1.1-1.113 1.65-2.603 1.65-4.47v0c0-4.1-2.25-6.15-6.75-6.15zM165.1 0h-6.15l-7.9-12.8h-4.45v12.8h-5.15v-33.7h9.4c3.867 0 6.85 0.94 8.95 2.82 2.1 1.887 3.15 4.447 3.15 7.68v0c-0.033 2.367-0.633 4.373-1.8 6.02-1.167 1.653-2.783 2.847-4.85 3.58v0zM175 0h-5.15v-33.7h5.15zM194.15-33.7l-12.35 17 13.1 16.7h-6.5l-12.75-16.65 12.25-17.05z" fill="#ffffff" fill-rule="nonzero" stroke="none" stroke-width="1" stroke-linecap="butt" stroke-linejoin="miter" stroke-miterlimit="10" stroke-dasharray="" stroke-dashoffset="0" font-family="none" font-weight="none" font-size="none" text-anchor="none" style="mix-blend-mode: normal" data-fill-palette-color="primary" opacity="1"></path></g></svg></g></svg></g></svg></g></svg></g><g><svg viewBox="0 0 117.103518756157 117.10494117647059" height="117.10494117647059" width="117.103518756157"><g><svg xmlns="http://www.w3.org/2000/svg" xmlns:xlink="http://www.w3.org/1999/xlink" version="1.1" x="0" y="0" viewBox="5.412825107574463 5.195577621459961 79.76930236816406 79.77027130126953" enable-background="new 0 0 90 90" xml:space="preserve" height="117.10494117647059" width="117.103518756157" class="icon-icon-0" data-fill-palette-color="accent" id="icon-0"><path d="M54.624 83.27c-10.792 1.801-22.246-1.411-30.727-8.272-8.062-6.522-13.088-16.744-12.728-27.17 0.349-10.096 5.499-20.182 14.078-25.707 8.769-5.647 20.783-5.62 29.498 0.129 8.154 5.379 12.661 15.857 9.907 25.391-1.424 4.931-4.572 9.475-9.052 12.082-4.663 2.714-10.561 3.268-15.615 1.341-4.544-1.733-8.418-5.448-9.851-10.154-1.47-4.826-0.243-10.416 3.327-14.027 3.452-3.492 8.998-4.743 13.484-2.567 4.259 2.065 6.884 7.148 5.307 11.755-0.85 2.483-2.859 4.611-5.423 5.317-2.69 0.741-5.774-0.221-7.439-2.493-1.629-2.222-1.495-5.503 0.597-7.389 1.054-0.95 2.599-1.429 3.984-1.015 0.41 0.122 2.233 0.566 2.058 1.209 0.087-0.652-1.341-0.82-1.755-0.934-1.29-0.356-2.733 0.004-3.719 0.904-1.739 1.586-1.995 4.459-0.597 6.34 1.417 1.906 4.102 2.721 6.348 1.971 2.287-0.765 3.875-3.013 4.245-5.344 0.746-4.703-3.812-8.759-8.323-8.569-4.774 0.201-8.548 4.373-9.111 8.971-1.056 8.621 8.8 14.488 16.466 12.536 8.546-2.177 12.86-12.372 10.766-20.465-2.34-9.045-11.891-14.664-20.877-14.543-9.785 0.131-18.28 7.23-21.955 16.011-4.038 9.649-2.194 21.17 4.201 29.364 6.485 8.309 16.93 13.113 27.352 13.664 5.766 0.305 11.749-0.537 17.004-3.006 4.955-2.328 8.907-6.258 11.976-10.734 6.303-9.194 8.662-20.938 6.135-31.824C79.845 17.355 61.052 3.689 41.936 5.329 23.164 6.939 7.154 22.991 5.551 41.756c-0.918 10.74 2.777 21.76 9.928 29.817 7.078 7.976 17.424 12.875 28.071 13.353 6.118 0.275 12.303-0.876 17.903-3.359-2.472 0.844-4.993 1.695-7.622 1.838 0.506-0.028 0.982-0.246 1.492-0.242-1.79-0.014-3.465 0.776-5.242 0.87 1.034-0.055 2.103-0.271 3.095-0.566 0.337-0.101 1.458-0.578 1.755-0.242-0.207-0.235-1.358 0.182-1.613 0.243-0.926 0.221-1.953 0.452-2.902 0.51 0.426-0.026 4.536-0.711 4.53-0.755 0.008 0.065-4.022 0.607-4.613 0.769 0.714-0.196 1.505-0.245 2.235-0.367 0.292-0.048 2.164-0.591 2.374-0.402C54.91 83.194 54.661 83.264 54.624 83.27 43.928 85.055 57.114 82.88 54.624 83.27z" fill="#ffffff" data-fill-palette-color="accent"></path></svg></g></svg></g></svg></g><defs></defs></svg><rect width="395.52" height="83.75105267277037" fill="none" stroke="none" visibility="hidden"></rect></g></svg></g></svg>